<?xml version="1.0" encoding="iso-8859-1"?>
<!-- Generator: Adobe Illustrator 19.2.1, SVG Export Plug-In . SVG Version: 6.00 Build 0)  -->
<svg version="1.1" xmlns="http://www.w3.org/2000/svg" xmlns:xlink="http://www.w3.org/1999/xlink" x="0px" y="0px"
	 viewBox="0 0 40 40" style="enable-background:new 0 0 40 40;" xml:space="preserve">
<g id="Layer_1">
	<g>
		<path style="fill:#C8D1DB;" d="M31.5,20c3.033,0,5.5,2.467,5.5,5.5S34.533,31,31.5,31S26,28.533,26,25.5S28.467,20,31.5,20
			 M31.5,18c-4.142,0-7.5,3.358-7.5,7.5s3.358,7.5,7.5,7.5s7.5-3.358,7.5-7.5S35.642,18,31.5,18L31.5,18z"/>
		<path style="fill:#66798F;" d="M31.5,19c3.584,0,6.5,2.916,6.5,6.5S35.084,32,31.5,32S25,29.084,25,25.5S27.916,19,31.5,19
			 M31.5,18c-4.142,0-7.5,3.358-7.5,7.5s3.358,7.5,7.5,7.5s7.5-3.358,7.5-7.5S35.642,18,31.5,18L31.5,18z"/>
	</g>
	<g>
		<path style="fill:#C8D1DB;" d="M8.5,20c3.033,0,5.5,2.467,5.5,5.5S11.533,31,8.5,31S3,28.533,3,25.5S5.467,20,8.5,20 M8.5,18
			C4.358,18,1,21.358,1,25.5S4.358,33,8.5,33s7.5-3.358,7.5-7.5S12.642,18,8.5,18L8.5,18z"/>
		<path style="fill:#66798F;" d="M8.5,19c3.584,0,6.5,2.916,6.5,6.5S12.084,32,8.5,32S2,29.084,2,25.5S4.916,19,8.5,19 M8.5,18
			C4.358,18,1,21.358,1,25.5S4.358,33,8.5,33s7.5-3.358,7.5-7.5S12.642,18,8.5,18L8.5,18z"/>
	</g>
	<path style="fill:none;stroke:#66798F;stroke-miterlimit:10;" d="M27.281,7.5h3.75c0.828,0,1.5,0.672,1.5,1.5v0
		c0,0.828-0.672,1.5-1.5,1.5H30"/>
	<polyline style="fill:none;stroke:#C74343;stroke-linejoin:round;stroke-miterlimit:10;" points="31.5,25.5 24.5,7.5 28,7.5 	"/>
	<polyline style="fill:none;stroke:#C74343;stroke-miterlimit:10;" points="26.427,12.5 13.731,12.5 8.5,25.5 	"/>
	<line style="fill:none;stroke:#C74343;stroke-miterlimit:10;" x1="12.536" y1="8.804" x2="18" y2="25.5"/>
	<polyline style="fill:none;stroke:#C74343;stroke-miterlimit:10;" points="8.5,25.5 18,25.5 27.228,14.514 	"/>
	<g>
		<circle style="fill:#66798F;" cx="8.5" cy="25.5" r="1"/>
	</g>
	<g>
		<circle style="fill:#66798F;" cx="31.5" cy="25.5" r="1"/>
	</g>
	<path style="fill:#66798F;" d="M14.679,9.667L9,11V9c0-0.552,0.448-1,1-1h6v0C16,8.795,15.453,9.486,14.679,9.667z"/>
</g>
<g id="Layer_2">
</g>
</svg>
